<?xml version="1.0" encoding="UTF-8"?>
<svg width="132px" height="134px" viewBox="0 0 132 134" version="1.1" xmlns="http://www.w3.org/2000/svg" xmlns:xlink="http://www.w3.org/1999/xlink">
    <!-- Generator: Sketch 47 (45396) - http://www.bohemiancoding.com/sketch -->
    <title>add-a-song-interface-symbol</title>
    <desc>Created with Sketch.</desc>
    <defs></defs>
    <g id="Page-1" stroke="none" stroke-width="1" fill="none" fill-rule="evenodd">
        <g id="add-a-song-interface-symbol" transform="translate(2.000000, 2.000000)" stroke="#005CA1" stroke-width="3" fill-rule="nonzero">
            <path d="M116.592993,53.5144143 L116.592993,95.5091972 C114.506875,94.6754428 112.232378,94.2110791 109.848374,94.2110791 C99.8235773,94.2110791 91.6967478,102.326943 91.6967478,112.337703 C91.6967478,122.348463 99.8238059,130.464326 109.848374,130.464326 C119.872942,130.464326 128,122.348463 128,112.337703 C128,112.332908 128,112.327886 128,112.323091 L128,112.323091 L128,53.5144143 L128,30.7315968 L116.592993,30.7315968 L70.5952939,30.7315968 C70.7434368,32.0534582 70.8266529,33.3940403 70.8266529,34.7549411 C70.8266529,41.6249675 68.8834198,48.0500357 65.5220838,53.5144143 L116.592993,53.5144143 Z" id="Shape"></path>
            <path d="M58.2738375,62.0430351 C54.9491381,64.9061446 51.0997624,67.1741415 46.8866051,68.6754948 L46.8866051,95.5399562 C44.8041036,94.7069355 42.5337776,94.2429803 40.1539063,94.2429803 C30.1464881,94.2429803 22.0339751,102.351702 22.0339751,112.353653 C22.0339751,122.355604 30.1467163,130.464326 40.1539063,130.464326 C50.1613245,130.464326 58.2740657,122.355604 58.2740657,112.353653 C58.2740657,112.348863 58.2740657,112.343845 58.2740657,112.339055 L58.2740657,112.339055 L58.2740657,62.0430351 L58.2738375,62.0430351 Z" id="Shape"></path>
            <path d="M32.4711212,64.9422424 C36.7273221,64.9422424 40.7886679,64.1146253 44.5135289,62.6254628 C48.8544792,60.8905051 52.7305643,58.2470646 55.9115216,54.9279157 C57.0146342,53.7766074 58.0329974,52.5451186 58.958616,51.2414447 C62.7220826,45.9408577 64.9422424,39.4665757 64.9422424,32.471007 C64.9422424,31.1072548 64.848584,29.7658892 64.6847961,28.4453112 C62.701295,12.4128857 49.0404253,0 32.4711212,0 C14.5380601,0 0,14.538009 0,32.471007 C0,50.4040049 14.5373748,64.9422424 32.4711212,64.9422424 Z M12.2829498,25.0791049 L25.0782793,25.0791049 L25.0782793,12.2829066 L39.862364,12.2829066 L39.862364,25.0784196 L52.6583788,25.0784196 L52.6583788,28.4455396 L52.6583788,39.8624522 L44.5135289,39.8624522 L39.8630493,39.8624522 L39.8630493,52.6586504 L25.0789647,52.6586504 L25.0789647,39.8633659 L12.2829498,39.8633659 L12.2829498,25.0791049 Z" id="Shape"></path>
        </g>
    </g>
</svg>