<?xml version="1.0" encoding="UTF-8"?>
<svg width="128px" height="128px" viewBox="0 0 128 128" version="1.1" xmlns="http://www.w3.org/2000/svg" xmlns:xlink="http://www.w3.org/1999/xlink">
    <!-- Generator: Sketch 47 (45396) - http://www.bohemiancoding.com/sketch -->
    <title>success</title>
    <desc>Created with Sketch.</desc>
    <defs></defs>
    <g id="Page-1" stroke="none" stroke-width="1" fill="none" fill-rule="evenodd">
        <g id="success" fill-rule="nonzero" fill="#0DB86F">
            <path d="M64,0 C28.7113846,0 0,28.7089231 0,64 C0,99.2910769 28.7113846,128 64,128 C99.2886154,128 128,99.2910769 128,64 C128,28.7089231 99.2886154,0 64,0 Z M64,123.076923 C31.4264615,123.076923 4.92307692,96.5735385 4.92307692,64 C4.92307692,31.4264615 31.4264615,4.92307692 64,4.92307692 C96.5735385,4.92307692 123.076923,31.4264615 123.076923,64 C123.076923,96.5735385 96.5735385,123.076923 64,123.076923 Z" id="Shape"></path>
            <path d="M94.1587692,37.7501538 L56.3273846,80.3101538 L33.536,62.0775385 C32.4775385,61.2283077 30.9243077,61.4030769 30.0775385,62.4615385 C29.2283077,63.5249231 29.4006154,65.0732308 30.4615385,65.9224615 L55.0769231,85.6147692 C55.5298462,85.9766154 56.0738462,86.1538462 56.6153846,86.1538462 C57.2947692,86.1538462 57.9716923,85.8732308 58.4566154,85.3267692 L97.8412308,41.0190769 C98.7446154,40.0049231 98.6535385,38.4467692 97.6369231,37.5458462 C96.6178462,36.64 95.0646154,36.7310769 94.1587692,37.7501538 Z" id="Shape"></path>
        </g>
    </g>
</svg>